<svg width="1024" height="1024" viewBox="0 0 1024 1024" fill="none" xmlns="http://www.w3.org/2000/svg">
<path d="M512 177C703.643 177 859 326.878 859 511.762C859 696.645 703.643 846.522 512 846.522C320.357 846.522 165 696.645 165 511.762C165 326.878 320.357 177 512 177ZM523.285 207.105C358.484 208.14 225.693 337.268 226.688 495.521C227.684 653.775 362.089 781.226 526.891 780.192C691.692 779.158 824.484 650.03 823.488 491.776C823.211 447.747 812.606 406.102 793.894 368.945C797.776 361.47 799.967 352.998 799.967 344.021C799.967 313.803 775.148 289.308 744.533 289.308C741.354 289.308 738.236 289.572 735.203 290.079C680.845 238.345 605.883 206.587 523.285 207.105Z" fill="url(#paint0_linear_28_372)"/>
<circle cx="745.253" cy="344.021" r="40.3154" fill="#2DB87A"/>
<defs>
<linearGradient id="paint0_linear_28_372" x1="345.699" y1="806.207" x2="710.131" y2="269.23" gradientUnits="userSpaceOnUse">
<stop stop-color="#D1D5DB"/>
<stop offset="1" stop-color="#8B919A"/>
</linearGradient>
</defs>
</svg>
