<svg width="1024" height="1024" viewBox="0 0 1024 1024" fill="none" xmlns="http://www.w3.org/2000/svg">
<path d="M209.401 827.55C202.601 827.55 196.601 826.4 191.401 824.1C186.301 821.7 181.951 818.55 178.351 814.65C174.851 810.65 172.151 806.2 170.251 801.3C168.451 796.4 167.551 791.4 167.551 786.3V784.2C167.551 779.1 168.501 774.1 170.401 769.2C172.301 764.2 175.051 759.75 178.651 755.85C182.251 751.95 186.601 748.85 191.701 746.55C196.901 744.15 202.801 742.95 209.401 742.95C216.101 742.95 222.001 744.15 227.101 746.55C232.301 748.85 236.701 751.95 240.301 755.85C243.901 759.75 246.601 764.2 248.401 769.2C250.301 774.1 251.251 779.1 251.251 784.2V786.3C251.251 791.4 250.351 796.4 248.551 801.3C246.751 806.2 244.051 810.65 240.451 814.65C236.951 818.55 232.601 821.7 227.401 824.1C222.201 826.4 216.201 827.55 209.401 827.55ZM209.401 817.5C216.001 817.5 221.551 816.05 226.051 813.15C230.651 810.15 234.151 806.25 236.551 801.45C238.951 796.55 240.151 791.15 240.151 785.25C240.151 779.25 238.901 773.85 236.401 769.05C234.001 764.15 230.501 760.3 225.901 757.5C221.301 754.6 215.801 753.15 209.401 753.15C203.101 753.15 197.651 754.6 193.051 757.5C188.451 760.3 184.901 764.15 182.401 769.05C180.001 773.85 178.801 779.25 178.801 785.25C178.801 791.15 180.001 796.55 182.401 801.45C184.801 806.25 188.251 810.15 192.751 813.15C197.351 816.05 202.901 817.5 209.401 817.5Z" fill="#DCE0E4"/>
<path d="M286.193 825V745.5H295.193V778.95H293.393C293.393 771.65 294.393 765.35 296.393 760.05C298.493 754.75 301.593 750.65 305.693 747.75C309.793 744.75 314.993 743.25 321.293 743.25H321.743C328.043 743.25 333.243 744.7 337.343 747.6C341.443 750.5 344.493 754.6 346.493 759.9C348.493 765.2 349.493 771.55 349.493 778.95H345.893C345.893 771.65 346.893 765.35 348.893 760.05C350.993 754.75 354.093 750.65 358.193 747.75C362.393 744.75 367.643 743.25 373.943 743.25H374.393C380.693 743.25 385.893 744.7 389.993 747.6C394.193 750.5 397.293 754.6 399.293 759.9C401.393 765.2 402.443 771.55 402.443 778.95V825H391.193V776.4C391.193 769.4 389.493 763.85 386.093 759.75C382.693 755.65 377.793 753.6 371.393 753.6C364.793 753.6 359.543 755.75 355.643 760.05C351.843 764.25 349.943 769.95 349.943 777.15V825H338.693V776.4C338.693 769.4 336.993 763.85 333.593 759.75C330.193 755.65 325.293 753.6 318.893 753.6C312.293 753.6 307.043 755.75 303.143 760.05C299.343 764.25 297.443 769.95 297.443 777.15V825H286.193Z" fill="#DCE0E4"/>
<path d="M442.48 825V745.65H451.48V778.95H449.68C449.68 771.55 450.78 765.2 452.98 759.9C455.18 754.6 458.48 750.5 462.88 747.6C467.28 744.7 472.83 743.25 479.53 743.25H479.98C489.98 743.25 497.43 746.4 502.33 752.7C507.23 758.9 509.68 767.65 509.68 778.95V825H498.58V776.55C498.58 769.65 496.68 764.1 492.88 759.9C489.08 755.7 483.78 753.6 476.98 753.6C469.98 753.6 464.33 755.8 460.03 760.2C455.83 764.5 453.73 770.2 453.73 777.3V825H442.48Z" fill="#DCE0E4"/>
<path d="M553.895 825V745.65H564.995V825H553.895ZM541.145 754.65V745.65H564.995V754.65H541.145ZM556.295 730.95C553.595 730.95 551.545 730.25 550.145 728.85C548.845 727.35 548.195 725.5 548.195 723.3C548.195 721.1 548.845 719.3 550.145 717.9C551.545 716.4 553.595 715.65 556.295 715.65C558.995 715.65 560.995 716.4 562.295 717.9C563.595 719.3 564.245 721.1 564.245 723.3C564.245 725.5 563.595 727.35 562.295 728.85C560.995 730.25 558.995 730.95 556.295 730.95Z" fill="#DCE0E4"/>
<path d="M606.519 825V745.65H615.519V778.8H614.619C614.619 767.2 617.169 758.65 622.269 753.15C627.369 747.55 635.369 744.75 646.269 744.75H648.819V754.95H644.169C635.569 754.95 629.019 757.2 624.519 761.7C620.019 766.1 617.769 772.6 617.769 781.2V825H606.519Z" fill="#DCE0E4"/>
<path d="M706.467 827.25C696.967 827.25 689.717 824.2 684.717 818.1C679.717 811.9 677.217 803.3 677.217 792.3V745.5H688.317V794.55C688.317 801.45 690.117 806.95 693.717 811.05C697.417 815.05 702.517 817.05 709.017 817.05C715.817 817.05 721.217 814.9 725.217 810.6C729.317 806.3 731.367 800.55 731.367 793.35V745.5H742.617V825H733.617V791.85H735.417C735.417 799.25 734.367 805.6 732.267 810.9C730.167 816.1 727.017 820.15 722.817 823.05C718.617 825.85 713.317 827.25 706.917 827.25H706.467Z" fill="#DCE0E4"/>
<path d="M784.034 825V745.65H793.034V778.95H791.234C791.234 771.55 792.334 765.2 794.534 759.9C796.734 754.6 800.034 750.5 804.434 747.6C808.834 744.7 814.384 743.25 821.084 743.25H821.534C831.534 743.25 838.984 746.4 843.884 752.7C848.784 758.9 851.234 767.65 851.234 778.95V825H840.134V776.55C840.134 769.65 838.234 764.1 834.434 759.9C830.634 755.7 825.334 753.6 818.534 753.6C811.534 753.6 805.884 755.8 801.584 760.2C797.384 764.5 795.284 770.2 795.284 777.3V825H784.034Z" fill="#DCE0E4"/>
<path d="M565 723.5C565 728.194 561.194 732 556.5 732C551.806 732 548 728.194 548 723.5C548 718.806 551.806 715 556.5 715C561.194 715 565 718.806 565 723.5Z" fill="#2DB87A"/>
<path d="M509 170C642.101 170 750 274.094 750 402.5C750 530.906 642.101 635 509 635C375.899 635 268 530.906 268 402.5C268 274.094 375.899 170 509 170ZM516.838 190.909C402.379 191.627 310.152 281.31 310.844 391.221C311.535 501.132 404.883 589.65 519.342 588.932C633.801 588.213 726.027 498.531 725.336 388.62C725.144 358.04 717.777 329.117 704.781 303.311C707.478 298.119 709 292.235 709 286C709 265.013 691.763 248 670.5 248C668.292 248 666.127 248.186 664.021 248.538C626.268 212.607 574.205 190.549 516.838 190.909Z" fill="url(#paint0_linear_28_361)"/>
<circle cx="671" cy="286" r="28" fill="#2DB87A"/>
<defs>
<linearGradient id="paint0_linear_28_361" x1="393.5" y1="607" x2="646.607" y2="234.056" gradientUnits="userSpaceOnUse">
<stop stop-color="#D1D5DB"/>
<stop offset="1" stop-color="#8B919A"/>
</linearGradient>
</defs>
</svg>
