<svg width="1024" height="1024" viewBox="0 0 1024 1024" fill="none" xmlns="http://www.w3.org/2000/svg">
<path d="M119.785 585.336C110.883 585.336 103.029 583.83 96.2214 580.82C89.5451 577.678 83.8507 573.554 79.138 568.449C74.5562 563.213 71.0217 557.387 68.5345 550.973C66.1782 544.558 65 538.013 65 531.337V528.588C65 521.911 66.2436 515.366 68.7309 508.951C71.2181 502.406 74.818 496.581 79.5307 491.475C84.2434 486.37 89.9378 482.312 96.6141 479.301C103.421 476.159 111.145 474.588 119.785 474.588C128.555 474.588 136.279 476.159 142.955 479.301C149.762 482.312 155.522 486.37 160.235 491.475C164.948 496.581 168.482 502.406 170.839 508.951C173.326 515.366 174.569 521.911 174.569 528.588V531.337C174.569 538.013 173.391 544.558 171.035 550.973C168.679 557.387 165.144 563.213 160.431 568.449C155.85 573.554 150.155 577.678 143.348 580.82C136.541 583.83 128.686 585.336 119.785 585.336ZM119.785 572.18C128.425 572.18 135.69 570.282 141.581 566.485C147.603 562.558 152.184 557.453 155.326 551.169C158.468 544.755 160.039 537.686 160.039 529.962C160.039 522.108 158.402 515.039 155.13 508.755C151.988 502.341 147.406 497.301 141.384 493.635C135.363 489.839 128.163 487.941 119.785 487.941C111.538 487.941 104.403 489.839 98.3814 493.635C92.3596 497.301 87.7124 502.341 84.4397 508.755C81.298 515.039 79.7271 522.108 79.7271 529.962C79.7271 537.686 81.298 544.755 84.4397 551.169C87.5815 557.453 92.0978 562.558 97.9886 566.485C104.01 570.282 111.276 572.18 119.785 572.18Z" fill="#DCE0E4"/>
<path d="M220.311 581.998V477.926H232.092V521.715H229.736C229.736 512.159 231.045 503.912 233.663 496.973C236.412 490.035 240.47 484.668 245.838 480.872C251.205 476.945 258.012 474.981 266.259 474.981H266.848C275.095 474.981 281.903 476.879 287.27 480.675C292.637 484.472 296.63 489.839 299.248 496.777C301.866 503.715 303.175 512.028 303.175 521.715H298.462C298.462 512.159 299.771 503.912 302.39 496.973C305.139 490.035 309.197 484.668 314.564 480.872C320.062 476.945 326.935 474.981 335.182 474.981H335.771C344.018 474.981 350.825 476.879 356.193 480.675C361.691 484.472 365.749 489.839 368.367 496.777C371.116 503.715 372.491 512.028 372.491 521.715V581.998H357.763V518.377C357.763 509.213 355.538 501.948 351.087 496.581C346.636 491.214 340.222 488.53 331.844 488.53C323.204 488.53 316.331 491.344 311.226 496.973C306.251 502.472 303.764 509.933 303.764 519.359V581.998H289.037V518.377C289.037 509.213 286.812 501.948 282.361 496.581C277.91 491.214 271.496 488.53 263.117 488.53C254.478 488.53 247.605 491.344 242.5 496.973C237.525 502.472 235.038 509.933 235.038 519.359V581.998H220.311Z" fill="#DCE0E4"/>
<path d="M424.902 581.998V478.123H436.684V521.715H434.327C434.327 512.028 435.767 503.715 438.647 496.777C441.527 489.839 445.847 484.472 451.607 480.675C457.367 476.879 464.632 474.981 473.403 474.981H473.992C487.083 474.981 496.836 479.105 503.25 487.352C509.664 495.468 512.872 506.922 512.872 521.715V581.998H498.341V518.573C498.341 509.541 495.854 502.275 490.879 496.777C485.905 491.279 478.967 488.53 470.065 488.53C460.901 488.53 453.505 491.41 447.876 497.17C442.378 502.799 439.629 510.261 439.629 519.555V581.998H424.902Z" fill="#DCE0E4"/>
<path d="M570.752 581.998V478.123H585.283V581.998H570.752ZM554.061 489.904V478.123H585.283V489.904H554.061ZM573.894 458.879C570.359 458.879 567.676 457.963 565.843 456.13C564.141 454.167 563.29 451.745 563.29 448.865C563.29 445.985 564.141 443.629 565.843 441.796C567.676 439.832 570.359 438.851 573.894 438.851C577.428 438.851 580.047 439.832 581.748 441.796C583.45 443.629 584.301 445.985 584.301 448.865C584.301 451.745 583.45 454.167 581.748 456.13C580.047 457.963 577.428 458.879 573.894 458.879Z" fill="#DCE0E4"/>
<path d="M639.641 581.998V478.123H651.423V521.519H650.245C650.245 506.333 653.583 495.141 660.259 487.941C666.935 480.61 677.408 476.945 691.677 476.945H695.015V490.297H688.928C677.67 490.297 669.095 493.243 663.204 499.133C657.314 504.893 654.368 513.402 654.368 524.66V581.998H639.641Z" fill="#DCE0E4"/>
<path d="M770.48 584.943C758.044 584.943 748.553 580.95 742.008 572.965C735.463 564.849 732.19 553.591 732.19 539.191V477.926H746.721V542.136C746.721 551.169 749.077 558.369 753.79 563.736C758.633 568.972 765.31 571.591 773.819 571.591C782.72 571.591 789.789 568.776 795.026 563.147C800.393 557.518 803.076 549.991 803.076 540.566V477.926H817.803V581.998H806.022V538.602H808.378C808.378 548.289 807.004 556.602 804.254 563.54C801.505 570.347 797.382 575.649 791.884 579.445C786.386 583.11 779.448 584.943 771.069 584.943H770.48Z" fill="#DCE0E4"/>
<path d="M872.022 581.998V478.123H883.804V521.715H881.447C881.447 512.028 882.887 503.715 885.767 496.777C888.647 489.839 892.967 484.472 898.727 480.675C904.487 476.879 911.752 474.981 920.523 474.981H921.112C934.203 474.981 943.956 479.105 950.37 487.352C956.785 495.468 959.992 506.922 959.992 521.715V581.998H945.461V518.573C945.461 509.541 942.974 502.275 937.999 496.777C933.025 491.279 926.087 488.53 917.185 488.53C908.021 488.53 900.625 491.41 894.996 497.17C889.498 502.799 886.749 510.261 886.749 519.555V581.998H872.022Z" fill="#DCE0E4"/>
<path d="M585.29 449.127C585.29 455.272 580.308 460.254 574.163 460.254C568.018 460.254 563.036 455.272 563.036 449.127C563.036 442.982 568.018 438 574.163 438C580.308 438 585.29 442.982 585.29 449.127Z" fill="#2DB87A"/>
</svg>
